<svg width="964" height="230" viewBox="0 0 964 230" fill="none" xmlns="http://www.w3.org/2000/svg">
<g clip-path="url(#clip0_2150_981)">
<g clip-path="url(#clip1_2150_981)">
<path d="M275.527 187.056V122.477C275.527 122.088 275.462 121.634 275.267 121.31L219.351 24.9589C218.44 23.2083 219.741 21.1983 221.691 21.1983H253.616C254.591 21.1983 255.566 21.7818 255.956 22.6896L291.197 83.9624C292.107 85.9724 294.968 85.9076 295.878 83.9624L330.729 22.6247C331.184 21.717 332.094 21.1334 333.069 21.1334H364.084C366.034 21.1334 367.27 23.1434 366.424 24.8941L310.768 121.31C310.573 121.699 310.508 122.088 310.508 122.477V187.056C310.508 188.483 309.337 189.65 307.907 189.65H278.128C276.698 189.65 275.527 188.483 275.527 187.056Z" fill="black"/>
<path d="M340.68 129.87V126.757C340.68 89.7342 365.648 64.1228 403.749 64.1228C441.851 64.1228 466.818 89.7342 466.818 127.017V129.87C466.818 167.152 441.851 192.763 403.749 192.763C365.648 192.763 340.68 167.152 340.68 129.87ZM433.008 129.87V127.017C433.008 103.026 423.255 89.9936 403.749 89.9936C384.243 89.9936 374.49 103.026 374.49 126.757V129.87C374.49 153.86 384.243 166.893 403.749 166.893C423.255 166.893 433.008 153.86 433.008 129.87Z" fill="black"/>
<path d="M654 16.6602V185.825C654 187.965 652.245 189.715 650.099 189.715H624.546C622.401 189.715 620.645 187.965 620.645 185.825V16.6602C620.645 15.2338 621.816 14.0667 623.246 14.0667H651.399C652.83 14.0667 654 15.2338 654 16.6602Z" fill="black"/>
<path d="M711.738 69.8279V187.122C711.738 188.548 710.568 189.715 709.138 189.715H681.049C679.619 189.715 678.448 188.548 678.448 187.122V69.8279C678.448 68.4015 679.619 67.2344 681.049 67.2344H709.138C710.568 67.2344 711.738 68.4015 711.738 69.8279Z" fill="black"/>
<path d="M745.922 187.446V94.0132C745.922 92.5867 744.752 91.4196 743.321 91.4196H725.311C724.076 91.4196 723.1 90.447 723.1 89.2151V69.8282C723.1 68.4018 724.271 67.2347 725.701 67.2347H743.712C744.947 67.2347 745.922 66.2621 745.922 65.0302V49.4688C745.922 24.3113 759.966 11.0193 789.485 11.0193C796.377 11.0193 804.96 12.3161 810.942 13.6777C811.397 13.8074 811.657 14.1316 811.657 14.5854V36.5658C811.657 37.9923 810.356 39.0946 808.926 38.7055C805.675 37.8626 801.449 37.0846 796.897 37.0846C783.829 37.0846 779.277 41.6233 779.277 52.2569V64.9653C779.277 66.1973 780.252 67.1698 781.488 67.1698H808.926C810.161 67.1698 811.137 68.1424 811.137 69.3744V89.0854C811.137 90.3174 810.161 91.2899 808.926 91.2899H781.488C780.252 91.2899 779.277 92.2625 779.277 93.4945V187.316C779.277 188.548 778.302 189.521 777.067 189.521H748.198C746.963 189.521 745.987 188.548 745.987 187.316L745.922 187.446Z" fill="black"/>
<path d="M849.317 228.23L864.401 188.937C864.401 188.937 864.531 188.289 864.401 188.03L819.278 70.7359C818.628 69.0501 819.863 67.2346 821.683 67.2346H851.267C852.373 67.2346 853.348 67.9478 853.738 68.9853L880.916 148.932C881.306 150.099 882.997 150.099 883.387 148.932L909.98 68.1424C910.175 67.6236 910.63 67.2346 911.215 67.2346H942.425C943.335 67.2346 943.985 68.1424 943.66 68.9853L883.257 229.202C883.062 229.721 882.607 230.045 882.022 230.045H850.552C849.642 230.045 848.992 229.138 849.317 228.295V228.23Z" fill="black"/>
<path d="M695.094 51.0249C705.328 51.0249 713.625 42.7515 713.625 32.5458C713.625 22.34 705.328 14.0667 695.094 14.0667C684.86 14.0667 676.563 22.34 676.563 32.5458C676.563 42.7515 684.86 51.0249 695.094 51.0249Z" fill="#2D40CB"/>
<path d="M483.393 147.7V69.8279C483.393 68.4015 484.564 67.2344 485.994 67.2344H514.343C515.773 67.2344 516.943 68.4015 516.943 69.8279V139.141C516.943 156.453 523.38 165.725 538.14 165.725C552.899 165.725 562.912 154.572 562.912 134.148V69.8279C562.912 68.4015 564.082 67.2344 565.513 67.2344H594.772C595.682 67.2344 596.462 67.9476 596.462 68.9202V187.122C596.462 188.548 595.292 189.715 593.861 189.715H566.618C565.253 189.715 564.082 188.613 564.017 187.251L563.562 175.775C563.562 174.543 562.002 174.089 561.287 175.062C555.695 182.518 547.372 189.067 536.384 191.66C507.581 198.468 483.458 177.266 483.458 147.764L483.393 147.7Z" fill="black"/>
</g>
<path d="M163.203 53.905C179 53.905 191.806 66.8229 191.806 82.51C191.806 98.1972 179 111.115 163.203 111.115C147.406 111.115 134.6 98.1972 134.6 82.51C134.6 66.8229 147.406 53.905 163.203 53.905Z" fill="#2D40CB"/>
<path d="M1.96787 1.00024C0.328761 1.00024 -1 2.32901 -1 3.96811V85.8776C-1 113.196 21.1459 135.342 48.4645 135.342C50.1036 135.342 51.4323 134.013 51.4323 132.374V50.4646C51.4323 23.1462 29.2864 1.00024 1.96787 1.00024Z" fill="#2D40CB"/>
<path d="M116.307 0.999756C117.946 0.999756 119.275 2.32853 119.275 3.96766V179.465C119.275 206.783 97.1285 228.929 69.8098 228.929C68.1706 228.929 66.8418 227.6 66.8418 225.962V50.4647C66.8418 23.1459 88.9881 0.999756 116.307 0.999756Z" fill="#2D40CB"/>
</g>
<defs>
<clipPath id="clip0_2150_981">
<rect width="964" height="230" fill="white"/>
</clipPath>
<clipPath id="clip1_2150_981">
<rect width="728.477" height="219.091" fill="white" transform="translate(219.09 10.9552)"/>
</clipPath>
</defs>
</svg>
